<?xml version="1.0" standalone="no"?>
<!DOCTYPE svg PUBLIC "-//W3C//DTD SVG 20010904//EN"
 "http://www.w3.org/TR/2001/REC-SVG-20010904/DTD/svg10.dtd">
<svg version="1.0" xmlns="http://www.w3.org/2000/svg"
 width="512.000000pt" height="512.000000pt" viewBox="0 0 512.000000 512.000000"
 preserveAspectRatio="xMidYMid meet">

<g transform="translate(0.000000,512.000000) scale(0.100000,-0.100000)"
fill="#000000" stroke="none">
<path d="M2294 5101 c-26 -16 -37 -35 -59 -100 l-26 -80 -52 -17 c-29 -9 -78
-30 -110 -45 l-58 -27 -92 55 c-132 78 -123 82 -334 -129 -130 -130 -174 -181
-179 -204 -6 -34 11 -74 71 -168 l34 -53 -28 -59 c-15 -33 -36 -82 -45 -111
l-17 -52 -80 -26 c-111 -37 -119 -51 -119 -211 l0 -122 -30 -12 c-43 -18 -105
-92 -119 -142 -6 -24 -36 -196 -66 -383 -30 -187 -57 -350 -60 -362 l-5 -23
-229 0 -228 0 -25 -25 c-14 -14 -28 -39 -32 -56 -3 -18 -6 -145 -6 -283 0
-347 -2 -344 227 -345 l122 -1 -54 -80 c-86 -127 -95 -167 -95 -446 0 -206 -2
-234 -16 -234 -8 0 -29 -13 -45 -29 l-29 -29 0 -367 c0 -232 4 -373 10 -386
21 -39 62 -49 194 -49 l125 0 3 -220 3 -220 28 -27 27 -28 375 0 375 0 27 28
28 27 3 220 3 220 849 0 849 0 3 -220 3 -220 28 -27 27 -28 370 -3 369 -3 33
30 33 29 3 221 3 221 125 0 c132 0 173 10 194 49 6 13 10 154 10 386 l0 367
-29 29 c-16 16 -37 29 -45 29 -14 0 -16 28 -16 234 0 279 -9 319 -95 446 l-54
80 122 1 c229 1 227 -2 227 345 0 138 -3 265 -6 283 -4 17 -18 42 -32 56 l-25
25 -228 0 -229 0 -5 23 c-3 12 -30 175 -60 362 -30 187 -60 359 -66 383 -14
50 -76 124 -119 142 l-30 12 0 122 c0 160 -8 174 -119 211 l-80 26 -17 52 c-9
29 -30 78 -45 111 l-28 59 34 53 c60 94 77 134 71 168 -5 23 -49 74 -179 204
-211 211 -202 207 -334 129 l-92 -55 -58 27 c-32 15 -81 36 -110 45 l-52 17
-26 80 c-41 121 -36 119 -325 119 -214 0 -238 -2 -266 -19z m428 -246 c10 -33
29 -69 41 -81 12 -12 65 -36 117 -53 52 -18 123 -48 158 -67 34 -19 77 -34 94
-34 19 0 62 18 111 46 l79 47 95 -96 96 -95 -47 -79 c-28 -49 -46 -92 -46
-111 0 -17 15 -60 34 -94 19 -35 49 -106 67 -158 17 -52 41 -105 53 -117 12
-12 48 -31 81 -41 l60 -18 3 -67 3 -67 -124 0 -124 0 -6 83 c-9 112 -29 184
-87 303 -101 209 -261 361 -472 448 -111 46 -221 67 -348 67 -356 0 -664 -193
-820 -515 -58 -119 -78 -191 -87 -303 l-6 -83 -124 0 -124 0 3 67 3 67 60 18
c33 10 69 29 81 41 12 12 36 65 53 117 18 52 48 123 67 158 19 34 34 77 34 94
0 19 -18 62 -46 111 l-47 79 96 95 95 96 79 -47 c49 -28 92 -46 111 -46 17 0
60 15 94 34 35 19 106 49 158 67 109 37 136 57 151 112 25 95 11 88 171 85
l142 -3 18 -60z m-59 -390 c114 -11 251 -72 354 -157 144 -119 253 -331 253
-491 l0 -47 -114 0 c-124 0 -126 1 -126 59 0 44 -36 136 -76 196 -88 133 -230
208 -394 208 -164 0 -306 -75 -394 -208 -40 -60 -76 -152 -76 -196 0 -58 -2
-59 -126 -59 l-114 0 0 47 c0 203 155 447 357 564 103 59 279 103 373 93 14
-2 51 -6 83 -9z m13 -454 c78 -35 141 -118 158 -208 l6 -33 -280 0 -280 0 6
28 c19 88 54 146 115 188 80 55 185 64 275 25z m1187 -453 c13 -10 37 -143
112 -603 53 -324 97 -599 98 -610 2 -18 -5 -20 -80 -23 -79 -3 -83 -2 -88 20
-3 13 -39 237 -80 498 -44 279 -81 488 -91 506 -9 18 -27 37 -40 43 -35 16
-2233 16 -2268 0 -13 -6 -31 -25 -40 -43 -10 -18 -47 -227 -91 -506 -41 -261
-77 -485 -80 -498 -5 -22 -9 -23 -88 -20 -75 3 -82 5 -80 23 1 11 45 286 98
610 75 460 99 593 112 603 13 9 290 12 1303 12 1013 0 1290 -3 1303 -12z
m-230 -785 c37 -236 68 -434 67 -440 0 -10 -235 -13 -1140 -13 -905 0 -1140 3
-1140 13 -1 6 30 204 67 440 l67 427 1006 0 1006 0 67 -427z m-2743 -145 c0
-2 -11 -68 -25 -148 -14 -80 -25 -149 -25 -153 0 -4 -53 -6 -117 -5 l-118 3
-3 153 -3 152 146 0 c80 0 145 -1 145 -2z m3628 -150 l-3 -153 -117 -3 c-65
-1 -118 1 -118 5 0 4 -11 73 -25 153 -14 80 -25 146 -25 148 0 1 65 2 145 2
l146 0 -3 -152z m-318 -465 c122 -165 115 -141 118 -416 l3 -238 -153 3 -153
3 -5 228 -5 229 -27 23 c-15 13 -47 27 -70 30 -24 3 -224 5 -445 3 l-402 -3
-30 -29 -31 -29 -2 -226 -3 -226 -445 0 -445 0 -5 227 -5 228 -28 27 -27 28
-393 3 c-215 2 -411 0 -435 -3 -23 -3 -55 -17 -70 -30 l-27 -23 -5 -229 -5
-228 -153 -3 -153 -3 3 238 c3 275 -4 251 118 416 l80 107 1560 0 1560 0 80
-107z m-2300 -498 l0 -155 -295 0 -295 0 0 155 0 155 295 0 295 0 0 -155z
m1910 0 l0 -155 -305 0 -305 0 0 155 0 155 305 0 305 0 0 -155z m600 -585 l0
-230 -1850 0 -1850 0 0 230 0 230 1850 0 1850 0 0 -230z m-2900 -580 l0 -150
-235 0 -235 0 0 150 0 150 235 0 235 0 0 -150z m2570 0 l0 -150 -235 0 -235 0
0 150 0 150 235 0 235 0 0 -150z"/>
<path d="M2050 3133 c-37 -7 -376 -349 -383 -387 -16 -91 84 -152 160 -98 59
43 340 338 345 362 14 77 -45 136 -122 123z"/>
<path d="M2148 2803 c-188 -188 -279 -286 -283 -304 -13 -56 38 -119 96 -119
40 0 79 34 337 292 260 263 262 265 262 307 0 58 -41 101 -96 101 -37 0 -50
-12 -316 -277z"/>
<path d="M1144 1012 c-51 -41 -57 -97 -15 -144 l29 -33 1195 0 1195 0 26 24
c31 30 42 73 26 112 -26 62 44 59 -1252 59 -1106 0 -1184 -2 -1204 -18z"/>
<path d="M3869 1015 c-14 -8 -32 -28 -39 -44 -35 -85 60 -171 138 -125 116 68
19 233 -99 169z"/>
</g>
</svg>
