<?xml version="1.0" standalone="no"?>
<!DOCTYPE svg PUBLIC "-//W3C//DTD SVG 20010904//EN"
 "http://www.w3.org/TR/2001/REC-SVG-20010904/DTD/svg10.dtd">
<svg version="1.0" xmlns="http://www.w3.org/2000/svg"
 width="2000.000000pt" height="2000.000000pt" viewBox="0 0 2000.000000 2000.000000"
 preserveAspectRatio="xMidYMid meet">

<g transform="translate(0.000000,2000.000000) scale(0.100000,-0.100000)"
fill="#000000" stroke="none">
<path d="M13210 18304 c-250 -32 -474 -114 -670 -245 -114 -77 -271 -225 -355
-338 -117 -156 -220 -384 -259 -575 -16 -74 -38 -301 -33 -341 2 -19 -23 -21
-893 -71 -492 -29 -926 -53 -965 -55 l-70 -2 -7 46 c-22 157 -91 290 -213 413
-133 134 -277 205 -450 223 -382 38 -723 -200 -817 -571 -30 -118 -23 -300 16
-413 40 -118 98 -209 190 -300 93 -91 164 -137 277 -176 203 -72 413 -55 614
49 103 54 248 201 303 307 48 95 77 194 87 298 l7 76 52 5 c51 6 1813 106
1852 106 19 0 22 -8 29 -66 4 -37 18 -111 31 -166 97 -399 348 -730 717 -942
26 -15 47 -29 47 -32 0 -9 -461 -969 -470 -978 -4 -4 -78 22 -162 58 -769 330
-1649 427 -2486 275 -1236 -224 -2346 -1004 -2972 -2087 -29 -51 -56 -92 -59
-92 -7 0 -1569 845 -1578 853 -2 3 10 33 27 66 132 262 170 639 95 948 -58
242 -154 427 -323 626 l-75 88 30 32 c331 355 965 1027 968 1027 3 0 35 -21
72 -46 135 -93 266 -134 427 -134 138 0 222 20 344 80 178 88 313 243 378 435
39 114 46 295 15 416 -35 143 -91 239 -201 349 -108 108 -198 163 -336 201
-111 32 -277 32 -388 0 -363 -102 -602 -450 -557 -811 20 -154 78 -290 172
-403 22 -26 39 -51 37 -56 -2 -7 -687 -740 -944 -1010 l-51 -55 -59 51 c-167
143 -415 261 -644 309 -41 8 -149 17 -240 21 -139 4 -184 2 -285 -15 -125 -22
-258 -62 -369 -111 l-65 -30 -277 517 -277 516 24 15 c115 76 213 188 275 314
61 125 78 209 72 360 -9 213 -69 348 -223 502 -102 103 -196 159 -331 196
-111 32 -277 32 -388 0 -210 -59 -378 -194 -476 -382 -60 -116 -84 -213 -83
-344 0 -138 19 -221 80 -345 84 -170 249 -312 438 -376 152 -52 383 -43 519
19 l53 25 277 -514 c152 -282 276 -517 276 -521 0 -4 -19 -19 -43 -32 -83 -47
-193 -136 -282 -226 -341 -346 -485 -822 -394 -1301 53 -282 182 -526 389
-738 l108 -111 -351 -431 -350 -431 -60 38 c-141 91 -338 134 -502 109 -305
-46 -534 -244 -626 -540 -31 -98 -33 -299 -6 -400 129 -464 640 -694 1072
-481 185 92 336 276 390 476 9 33 18 103 22 155 12 207 -57 399 -199 555 l-58
63 350 430 351 431 80 -55 c322 -219 729 -301 1110 -224 197 40 355 105 523
217 134 88 329 283 406 405 30 48 59 87 63 88 9 0 1557 -837 1570 -850 5 -4
-19 -61 -52 -127 -203 -405 -360 -920 -412 -1350 l-13 -102 -43 35 c-23 19
-64 45 -90 57 l-48 22 -1270 0 -1270 0 -57 -27 c-73 -34 -142 -103 -176 -176
l-27 -57 -3 -1630 -2 -1630 -325 -325 -325 -325 -477 476 c-548 546 -520 524
-683 523 -177 0 -139 30 -732 -562 -454 -453 -518 -520 -518 -547 0 -27 52 22
528 496 595 594 569 572 717 573 146 1 125 17 677 -533 l488 -486 517 516
c348 346 531 522 558 534 63 30 161 32 223 5 58 -25 125 -92 149 -148 20 -46
22 -144 4 -197 -11 -32 -117 -144 -559 -587 l-545 -547 18 -96 c31 -164 -1
-332 -87 -469 -27 -41 -200 -221 -536 -557 -526 -525 -573 -565 -737 -639
-174 -78 -387 -113 -561 -91 -55 6 -126 19 -159 27 l-60 16 -317 -322 c-282
-286 -318 -327 -318 -354 1 -29 25 -6 323 297 l322 329 80 -17 c326 -69 687
15 943 221 42 34 294 280 558 546 l481 483 47 95 c25 52 53 127 61 165 19 89
19 213 0 290 l-14 60 127 128 127 127 5 -337 5 -338 27 -57 c34 -73 103 -142
176 -176 55 -26 64 -27 259 -30 l202 -3 3 -517 3 -517 33 -67 c42 -85 126
-165 206 -196 32 -12 66 -22 76 -22 10 0 25 -3 34 -6 15 -6 16 -214 16 -2265
0 -2252 0 -2259 20 -2259 20 0 20 7 20 2285 l0 2285 -45 0 c-94 0 -214 71
-270 160 -53 84 -55 105 -55 632 l0 488 516 0 c409 0 514 -3 508 -12 -4 -7
-23 -37 -42 -67 -124 -195 -206 -458 -214 -686 -3 -74 -2 -80 17 -80 18 0 21
9 27 106 7 113 41 274 82 382 33 88 117 250 161 309 l35 47 502 3 503 3 60 29
c73 36 135 99 172 174 l28 57 3 752 3 752 69 64 c38 35 101 81 139 101 71 37
200 76 253 76 l29 0 -3 -1292 -3 -1293 -28 -100 c-106 -380 -397 -676 -764
-777 l-83 -23 0 -2187 c0 -2181 0 -2188 20 -2188 20 0 20 7 20 2169 l0 2170
84 25 c185 57 364 171 498 316 126 137 215 300 271 497 l22 78 3 1323 2 1322
-57 0 c-135 0 -304 -69 -410 -165 l-63 -57 1 969 0 968 35 -125 c233 -844 688
-1574 1334 -2143 625 -550 1407 -913 2226 -1032 250 -37 426 -47 712 -44 144
2 262 4 262 4 0 0 18 -216 40 -480 42 -509 42 -495 -8 -495 -44 0 -178 -32
-280 -66 -423 -140 -774 -491 -917 -917 -45 -134 -65 -253 -72 -415 -3 -83 -9
-152 -12 -152 -3 0 -166 -14 -361 -30 -195 -16 -360 -30 -366 -30 -6 0 -18 36
-28 80 -57 265 -276 493 -546 566 -47 13 -101 18 -195 18 -120 0 -137 -3 -225
-33 -210 -72 -352 -195 -445 -386 -58 -117 -77 -203 -77 -335 1 -204 75 -383
217 -525 151 -150 327 -225 535 -225 205 0 383 74 530 220 132 130 200 277
222 475 11 103 12 105 37 105 14 0 181 14 371 30 189 16 345 28 345 27 1 -1 9
-49 18 -106 98 -596 574 -1074 1182 -1187 137 -26 373 -26 510 0 331 62 638
235 847 480 34 39 64 72 67 74 4 1 341 -242 751 -540 l745 -543 35 -65 c22
-43 67 -98 130 -160 78 -79 110 -103 180 -138 118 -58 219 -82 345 -82 337 0
624 212 725 535 31 99 38 266 16 371 -26 117 -100 264 -177 348 -123 134 -270
214 -450 243 -125 21 -245 9 -369 -36 -347 -127 -554 -484 -486 -840 8 -47 14
-86 12 -88 -3 -3 -1391 1001 -1419 1027 -5 4 17 52 49 105 148 252 213 511
201 805 -11 269 -86 512 -223 727 l-34 53 53 38 c155 113 375 271 392 281 18
10 29 3 102 -67 134 -130 291 -198 478 -209 217 -13 410 60 568 215 163 160
235 346 225 577 -9 189 -73 338 -206 476 -161 169 -358 249 -587 236 -194 -10
-350 -81 -490 -222 -154 -154 -219 -312 -219 -530 0 -142 23 -239 84 -352 l39
-73 -52 -38 c-29 -21 -132 -96 -230 -166 l-178 -128 -110 116 c-133 139 -245
225 -388 299 -214 111 -436 167 -662 167 -117 0 -119 0 -119 23 0 12 -18 229
-39 482 -21 253 -37 461 -36 463 2 2 59 10 127 18 807 93 1566 411 2220 932
172 137 523 488 660 660 525 660 842 1419 934 2237 9 83 17 151 18 152 3 3
818 -54 894 -63 l53 -6 -7 -87 c-18 -242 57 -556 189 -793 86 -154 250 -340
391 -443 36 -27 66 -52 66 -55 0 -5 -646 -1079 -655 -1088 -2 -2 -26 8 -53 22
-93 47 -196 70 -317 70 -137 0 -219 -19 -344 -80 -80 -39 -108 -60 -185 -138
-104 -104 -145 -169 -189 -293 -26 -75 -31 -106 -35 -214 -4 -104 -1 -140 16
-206 56 -221 200 -399 405 -499 124 -60 209 -77 360 -72 103 4 136 9 210 35
124 44 189 85 292 188 77 76 98 105 138 185 61 124 80 207 80 345 1 158 -43
298 -133 430 -34 50 -121 138 -171 175 l-38 27 150 249 c83 137 231 382 330
546 l179 296 103 -53 c201 -104 382 -152 619 -162 l148 -6 4 -31 c3 -17 57
-704 121 -1526 63 -822 118 -1520 121 -1551 l6 -56 -63 -12 c-296 -59 -526
-283 -595 -578 -22 -95 -20 -249 5 -348 36 -140 92 -236 201 -346 82 -83 108
-103 190 -142 126 -62 208 -80 345 -80 215 1 369 67 525 223 135 134 197 259
220 443 19 156 -19 334 -101 474 -44 74 -187 218 -262 262 -97 57 -218 93
-329 99 -86 4 -98 7 -98 23 0 9 -54 707 -120 1550 -66 843 -120 1550 -120
1571 0 35 2 38 28 38 43 0 203 37 289 65 200 67 387 182 545 333 132 127 215
239 293 397 69 139 102 230 131 366 27 121 27 457 0 579 -42 194 -123 384
-228 538 -69 101 -231 268 -337 347 -154 116 -376 215 -581 260 -44 10 -147
19 -252 22 l-177 6 -5 36 c-3 20 -28 227 -56 461 -27 234 -53 441 -56 461 l-5
37 73 17 c40 10 113 38 163 63 76 38 105 60 185 141 136 137 199 265 219 446
35 304 -127 609 -397 748 -132 68 -235 91 -387 84 -138 -6 -201 -23 -325 -88
-104 -54 -228 -172 -288 -274 -108 -186 -136 -425 -71 -618 41 -123 88 -197
188 -298 83 -83 109 -103 191 -143 116 -56 186 -75 313 -83 53 -3 97 -7 97 -9
0 -11 111 -936 115 -960 l5 -31 -90 -17 c-567 -104 -1027 -552 -1154 -1126
l-23 -105 -44 3 c-24 1 -230 16 -458 32 -227 17 -420 30 -430 30 -14 0 -16 30
-16 323 -1 345 -12 478 -61 747 -206 1120 -832 2103 -1765 2771 -128 92 -356
230 -516 315 -51 27 -93 51 -93 55 0 5 467 980 473 985 2 2 37 -10 78 -27 184
-75 364 -104 594 -96 225 8 411 55 607 153 l46 23 201 -348 c111 -192 201
-353 201 -358 0 -6 -18 -23 -41 -39 -84 -58 -177 -171 -229 -278 -64 -132 -85
-233 -77 -371 7 -123 26 -195 80 -305 34 -70 58 -102 137 -181 151 -153 293
-217 496 -227 234 -10 427 68 587 237 123 132 193 293 204 471 21 352 -209
675 -549 770 -183 51 -356 34 -553 -56 -9 -4 -405 668 -413 700 -1 6 26 30 60
53 239 157 435 403 547 685 57 144 101 378 101 539 0 27 1 49 3 49 56 7 1334
77 1340 73 4 -2 7 -16 7 -31 0 -52 30 -147 75 -239 84 -171 243 -309 433 -377
82 -29 96 -31 232 -31 124 0 156 3 220 23 249 78 433 261 510 507 31 100 38
267 15 371 -62 281 -265 497 -541 576 -102 29 -285 31 -384 4 -316 -85 -539
-353 -567 -680 -3 -42 -9 -76 -14 -76 -23 0 -1233 -70 -1277 -74 -36 -3 -54
-1 -56 7 -2 7 -11 62 -21 122 -33 215 -123 432 -252 612 -80 113 -260 289
-368 361 -240 160 -491 239 -780 246 -82 3 -166 2 -185 0z m381 -60 c657 -112
1148 -667 1176 -1330 12 -279 -47 -529 -178 -759 -209 -368 -559 -617 -984
-701 -134 -27 -387 -24 -522 4 -575 123 -1006 557 -1120 1129 -27 138 -25 407
5 542 91 407 322 732 667 936 151 89 348 160 511 184 103 15 343 12 445 -5z
m-11311 -334 c349 -117 556 -463 486 -810 -21 -102 -46 -163 -101 -251 -206
-322 -628 -422 -960 -226 -38 22 -101 73 -140 112 -130 133 -194 279 -202 465
-6 137 12 227 73 350 39 79 62 110 133 181 71 71 103 94 181 133 127 62 195
77 345 72 89 -3 137 -10 185 -26z m14812 -169 c226 -58 409 -224 488 -441 72
-195 61 -379 -33 -570 -33 -67 -59 -103 -127 -171 -148 -149 -295 -212 -500
-212 -133 0 -208 16 -316 69 -183 90 -324 263 -375 462 -24 94 -25 249 -3 341
61 251 263 455 514 520 102 27 252 27 352 2z m-10738 -126 c237 -50 445 -241
523 -480 22 -68 26 -99 27 -205 1 -187 -39 -307 -149 -448 -262 -335 -761
-361 -1060 -57 -128 130 -192 277 -202 461 -7 130 13 227 74 354 38 79 59 108
132 180 141 141 298 208 496 209 50 0 121 -6 159 -14z m3071 -329 c114 -36
198 -89 290 -181 136 -136 205 -302 205 -495 0 -119 -22 -210 -76 -320 -39
-79 -62 -110 -134 -181 -72 -73 -101 -94 -180 -132 -413 -199 -887 14 -1006
453 -24 89 -24 271 0 360 59 214 223 400 426 480 143 57 330 63 475 16z
m-5500 -1651 c125 -22 280 -76 405 -141 380 -197 650 -561 737 -991 25 -123
25 -405 0 -523 -62 -292 -192 -535 -397 -740 -208 -209 -470 -345 -759 -394
-123 -21 -348 -21 -472 0 -112 19 -300 79 -396 127 -174 88 -353 233 -476 388
-129 161 -225 360 -274 571 -24 101 -27 133 -28 303 0 148 4 209 18 275 61
282 178 506 367 703 117 123 234 212 370 281 290 149 591 196 905 141z m6634
-725 c318 -16 580 -54 866 -126 1504 -379 2706 -1568 3100 -3068 336 -1278 73
-2634 -715 -3681 -134 -178 -223 -280 -404 -461 -235 -234 -409 -378 -671
-551 -1007 -669 -2271 -879 -3451 -573 -1583 410 -2805 1698 -3134 3304 -19
91 -20 136 -20 627 0 512 -1 532 -21 592 -25 74 -23 131 16 362 298 1770 1690
3183 3455 3509 230 42 427 61 750 74 19 1 122 -3 229 -8z m4479 -5 c86 -21
194 -72 270 -130 269 -204 352 -587 192 -893 -132 -254 -422 -408 -701 -374
-102 13 -208 47 -287 94 -80 47 -201 170 -250 253 -235 404 -20 927 430 1045
91 24 257 26 346 5z m1887 -966 c235 -72 401 -233 481 -464 26 -72 28 -93 28
-215 0 -118 -3 -145 -26 -212 -40 -120 -92 -204 -182 -293 -223 -221 -547
-269 -829 -123 -124 64 -240 183 -300 308 -211 437 42 933 521 1020 75 14 228
4 307 -21z m-15179 -1599 c346 -88 573 -414 533 -766 -19 -173 -79 -293 -209
-424 -67 -68 -103 -94 -170 -128 -119 -59 -193 -76 -325 -76 -132 0 -206 17
-325 76 -67 34 -103 60 -170 128 -95 95 -140 164 -175 269 -81 240 -33 499
128 689 175 207 454 298 713 232z m15624 -900 c564 -109 999 -540 1122 -1113
31 -146 31 -408 0 -554 -75 -350 -262 -644 -540 -853 -422 -317 -978 -372
-1458 -146 -146 69 -258 149 -385 276 -224 223 -354 475 -405 790 -21 127 -14
389 15 510 140 603 628 1041 1236 1110 109 12 298 3 415 -20z m-12448 -295
l-4 -25 -209 0 c-120 0 -209 4 -209 9 0 40 5 41 220 41 l207 0 -5 -25z m524 8
c-4 -9 -16 -54 -28 -100 l-20 -83 -210 0 c-163 0 -209 3 -206 13 3 6 28 14 57
17 53 6 91 33 91 64 0 31 -32 56 -71 56 -39 0 -44 5 -33 34 5 14 34 16 216 16
192 0 210 -1 204 -17z m-366 -88 c0 -13 -61 -15 -485 -15 -424 0 -485 2 -485
15 0 13 61 15 485 15 424 0 485 -2 485 -15z m-200 -80 c0 -13 -30 -15 -210
-15 -180 0 -210 2 -210 15 0 13 30 15 210 15 180 0 210 -2 210 -15z m960
-2140 l0 -2085 -1245 0 -1245 0 0 163 0 162 256 255 c296 295 308 312 308 435
1 96 -23 157 -87 223 -52 54 -96 77 -170 91 -96 18 -193 -11 -272 -80 l-35
-31 0 1476 0 1476 1245 0 1245 0 0 -2085z m9575 -1070 c39 -8 113 -36 165 -61
79 -39 110 -62 181 -133 71 -71 94 -102 133 -181 54 -110 76 -201 76 -318 0
-321 -217 -604 -530 -689 -88 -24 -271 -23 -360 1 -210 58 -392 218 -477 421
-55 130 -66 308 -28 450 97 362 468 588 840 510z m-11701 -1272 c-30 -115 -78
-300 -107 -412 l-52 -203 -100 5 c-123 7 -181 26 -241 80 l-45 42 86 330 c47
182 88 338 91 348 5 15 24 17 214 17 l208 0 -54 -207z m574 195 c-3 -7 -51
-192 -108 -410 l-103 -398 -209 0 c-114 0 -208 1 -208 3 0 1 47 184 105 406
58 223 105 406 105 408 0 2 95 3 211 3 165 0 210 -3 207 -12z m411 -196 c135
-81 116 -285 -31 -347 -74 -30 -163 -9 -220 51 -83 89 -58 247 47 302 72 37
134 35 204 -6z m8570 -312 c269 -34 500 -218 587 -469 88 -252 30 -523 -152
-721 -213 -229 -566 -290 -844 -144 -181 95 -319 270 -365 466 -21 91 -19 248
5 342 70 276 312 489 600 526 81 11 79 11 169 0z m4393 -824 c148 -29 265 -92
373 -201 126 -128 192 -277 202 -455 24 -407 -300 -750 -707 -750 -370 0 -681
289 -707 657 -33 464 384 836 839 749z m-6465 -125 c474 -97 863 -424 1044
-878 116 -293 125 -646 24 -949 -162 -487 -556 -838 -1066 -950 -120 -27 -438
-27 -559 0 -271 59 -499 180 -693 366 -131 125 -214 237 -292 395 -105 211
-148 395 -147 630 0 160 18 282 64 424 165 519 613 899 1154 976 132 19 338
13 471 -14z m-3011 -965 c232 -75 423 -293 470 -536 63 -320 -102 -642 -399
-780 -198 -93 -433 -86 -632 18 -128 67 -263 217 -322 357 -128 303 -13 674
265 859 78 51 121 71 217 97 104 28 290 22 401 -15z m6247 -1392 c208 -46 389
-192 483 -389 51 -107 68 -184 67 -310 -1 -201 -64 -349 -212 -496 -69 -68
-104 -95 -171 -127 -189 -93 -370 -104 -563 -37 -102 35 -172 81 -262 170
-138 137 -205 300 -205 498 0 124 19 205 73 317 34 70 57 101 136 180 107 107
188 154 322 189 93 25 234 27 332 5z"/>
<path d="M12970 17150 l0 -160 68 0 c61 0 71 3 93 26 20 22 24 38 28 105 7
159 -12 189 -119 189 l-70 0 0 -160z m134 114 c12 -12 16 -38 16 -114 0 -91
-2 -100 -22 -114 -12 -9 -37 -16 -55 -16 l-33 0 0 130 0 130 39 0 c23 0 46 -7
55 -16z"/>
<path d="M13229 17150 c-42 -144 -45 -160 -29 -160 12 0 22 12 30 35 11 34 13
35 60 35 48 0 49 -1 56 -35 4 -25 11 -35 25 -35 11 0 19 3 19 6 0 3 -18 67
-41 142 -22 75 -42 145 -45 155 -13 43 -32 7 -75 -143z m86 -17 c6 -32 6 -33
-28 -33 l-35 0 16 61 c17 60 17 61 28 32 6 -15 15 -43 19 -60z"/>
<path d="M13390 17295 c0 -10 11 -15 35 -15 l35 0 0 -145 c0 -138 1 -145 20
-145 19 0 20 7 20 145 l0 145 35 0 c24 0 35 5 35 15 0 12 -17 15 -90 15 -73 0
-90 -3 -90 -15z"/>
<path d="M13658 17303 c-14 -25 -90 -304 -85 -309 13 -13 35 6 42 35 6 29 9
31 54 31 46 0 49 -2 57 -32 9 -32 44 -53 44 -26 -1 7 -20 78 -44 158 -40 131
-56 166 -68 143z m34 -148 l15 -55 -37 0 -37 0 15 55 c8 30 18 55 22 55 4 0
14 -25 22 -55z"/>
<path d="M12644 16773 c-48 -9 -59 -37 -62 -159 l-4 -114 30 -30 c42 -41 92
-41 133 -1 34 35 39 71 9 71 -13 0 -20 -7 -20 -18 0 -27 -20 -42 -55 -42 -49
0 -55 13 -55 130 0 117 6 130 55 130 37 0 55 -16 55 -48 0 -18 4 -23 16 -18 9
3 18 6 20 6 13 0 1 43 -18 64 -23 25 -66 37 -104 29z"/>
<path d="M12884 16773 c-48 -9 -59 -37 -62 -159 l-4 -114 30 -30 c42 -41 92
-41 133 -1 29 29 29 31 29 140 0 100 -2 112 -22 135 -23 25 -66 37 -104 29z
m74 -45 c16 -16 16 -220 0 -236 -7 -7 -26 -12 -43 -12 -49 0 -55 13 -55 130 0
117 6 130 55 130 17 0 36 -5 43 -12z"/>
<path d="M13813 16773 c-13 -2 -32 -16 -43 -30 -17 -22 -20 -40 -20 -135 0
-108 0 -110 29 -139 38 -37 88 -39 128 -5 27 23 28 29 31 126 5 120 -7 156
-54 176 -19 8 -37 13 -41 13 -4 -1 -18 -4 -30 -6z m71 -49 c13 -12 16 -38 16
-118 0 -112 -6 -126 -55 -126 -17 0 -36 5 -43 12 -16 16 -16 220 0 236 17 17
64 15 82 -4z"/>
<path d="M13070 16610 c0 -134 2 -160 15 -160 12 0 15 21 17 109 l3 110 61
-106 c33 -59 66 -109 72 -111 9 -3 12 40 12 157 0 135 -2 161 -15 161 -12 0
-15 -21 -17 -111 l-3 -111 -63 111 c-35 61 -68 111 -73 111 -5 0 -9 -68 -9
-160z"/>
<path d="M13290 16755 c0 -11 11 -15 40 -15 l40 0 0 -145 c0 -122 2 -145 15
-145 13 0 15 23 15 145 l0 145 40 0 c29 0 40 4 40 15 0 12 -17 15 -95 15 -78
0 -95 -3 -95 -15z"/>
<path d="M13510 16610 c0 -153 1 -160 20 -160 18 0 20 7 20 65 0 88 21 88 75
0 25 -41 46 -65 57 -65 25 0 23 8 -17 68 l-36 53 36 33 c39 37 46 76 20 125
-18 36 -32 41 -111 41 l-64 0 0 -160z m141 109 c13 -20 11 -73 -3 -87 -7 -7
-31 -12 -55 -12 l-43 0 0 61 0 62 46 -6 c26 -2 50 -11 55 -18z"/>
<path d="M13990 16610 l0 -160 80 0 c64 0 80 3 80 15 0 12 -13 15 -60 15 l-60
0 0 145 c0 138 -1 145 -20 145 -19 0 -20 -7 -20 -160z"/>
<path d="M1950 17588 c-145 -75 -186 -232 -99 -386 16 -28 34 -76 40 -105 6
-28 18 -57 26 -64 12 -9 12 -16 3 -33 -9 -17 -8 -26 3 -44 10 -15 12 -27 5
-39 -13 -25 -2 -52 28 -65 14 -7 66 -12 117 -12 114 0 142 14 134 66 -3 19 -1
37 5 40 6 4 8 23 5 45 -3 24 0 42 8 49 7 6 15 28 19 49 3 22 24 77 46 122 33
69 40 93 40 143 -1 145 -103 253 -250 264 -59 4 -71 1 -130 -30z m215 -35 c77
-39 119 -109 119 -198 0 -50 -7 -74 -42 -144 -23 -47 -42 -98 -42 -113 l0 -28
-129 0 -129 0 -7 37 c-4 21 -24 73 -46 117 -62 127 -49 221 41 299 66 56 159
68 235 30z m5 -573 c0 -6 -42 -10 -105 -10 -63 0 -105 4 -105 10 0 6 42 10
105 10 63 0 105 -4 105 -10z m-47 -87 c-29 -2 -77 -2 -105 0 -29 2 -6 3 52 3
58 0 81 -1 53 -3z"/>
<path d="M16880 17320 c-105 -19 -180 -109 -180 -217 -1 -41 15 -79 102 -255
56 -115 108 -208 116 -208 7 0 58 92 114 205 91 184 101 210 101 260 0 135
-121 238 -253 215z m97 -51 c38 -14 83 -57 99 -96 28 -65 19 -100 -72 -285
l-86 -173 -83 165 c-92 184 -101 211 -86 268 27 100 134 157 228 121z"/>
<path d="M16870 17227 c-69 -24 -102 -121 -64 -187 52 -87 191 -77 230 17 28
66 -4 141 -72 169 -39 17 -48 17 -94 1z m105 -62 c66 -65 -14 -178 -94 -134
-35 20 -56 59 -47 92 16 66 95 89 141 42z"/>
<path d="M6072 17281 c-103 -38 -173 -106 -224 -216 -19 -41 -23 -67 -23 -145
0 -88 3 -101 33 -162 143 -291 554 -285 690 10 22 48 26 72 26 152 1 86 -2
101 -30 160 -39 83 -101 145 -184 184 -85 40 -205 47 -288 17z m274 -61 c117
-57 186 -167 186 -293 0 -195 -140 -337 -333 -337 -91 0 -164 28 -228 88 -160
150 -136 408 50 527 97 63 218 68 325 15z"/>
<path d="M6143 17209 c-85 -16 -166 -79 -209 -160 -19 -37 -31 -143 -17 -152
5 -3 34 2 64 12 30 10 78 22 107 26 29 4 55 13 60 19 15 26 50 38 75 25 12 -7
25 -17 29 -22 5 -9 158 -50 218 -60 22 -3 25 63 5 123 -43 129 -194 216 -332
189z m180 -72 c54 -32 95 -84 113 -144 12 -38 12 -44 0 -40 -8 3 -42 11 -77
18 -35 7 -79 23 -99 37 -41 28 -98 26 -133 -5 -12 -11 -50 -25 -85 -32 -35 -6
-70 -15 -78 -18 -41 -16 27 121 81 163 80 61 195 70 278 21z"/>
<path d="M6055 16885 c-70 -15 -135 -40 -135 -52 0 -5 15 -33 33 -63 57 -96
157 -147 272 -137 70 5 130 33 180 82 39 40 79 111 70 125 -7 11 -118 45 -176
54 -28 5 -40 2 -54 -14 -23 -26 -67 -26 -90 0 -21 23 -20 23 -100 5z m90 -55
c49 -25 61 -25 109 1 26 13 48 18 65 14 78 -19 101 -27 101 -35 0 -19 -74 -92
-114 -113 -29 -15 -59 -21 -106 -21 -47 0 -77 6 -106 21 -39 21 -114 94 -114
112 0 9 36 23 85 34 35 8 40 7 80 -13z"/>
<path d="M9093 16785 c-94 -26 -243 -115 -243 -147 0 -13 65 -78 78 -78 5 0
27 14 48 31 140 113 330 112 475 -2 20 -16 41 -29 46 -29 13 0 73 64 73 77 0
19 -82 83 -145 113 -107 50 -227 63 -332 35z m282 -60 c61 -25 135 -75 135
-91 0 -20 -17 -17 -50 6 -141 101 -339 104 -482 10 -50 -33 -83 -33 -52 1 84
92 313 130 449 74z"/>
<path d="M9137 16630 c-76 -19 -167 -79 -167 -109 0 -21 63 -81 84 -81 8 0 20
7 27 17 15 17 70 43 91 43 7 0 2 -6 -12 -13 -38 -18 -63 -77 -50 -113 25 -65
82 -89 138 -60 38 20 52 44 52 89 0 44 -24 74 -75 93 l-40 14 45 -6 c25 -3 67
-19 93 -35 27 -16 52 -29 57 -29 4 0 24 18 45 41 l37 41 -27 28 c-60 63 -208
102 -298 80z m193 -63 c58 -29 76 -45 62 -59 -8 -8 -26 -4 -73 17 -53 24 -71
27 -125 22 -39 -3 -77 -13 -100 -26 -56 -33 -92 -10 -39 25 71 47 203 57 275
21z m-88 -134 c22 -20 23 -41 1 -65 -24 -27 -71 -24 -85 7 -26 57 37 101 84
58z"/>
<path d="M2816 14383 c-72 -250 -87 -305 -82 -310 13 -13 35 9 42 41 6 35 7
36 55 36 48 0 48 0 59 -40 11 -40 40 -57 40 -22 -1 33 -86 306 -97 309 -6 2
-14 -4 -17 -14z m49 -184 c5 -16 1 -19 -29 -19 -40 0 -42 7 -25 61 21 64 21
65 35 20 8 -24 16 -52 19 -62z"/>
<path d="M2970 14256 c0 -144 0 -145 26 -165 38 -30 98 -28 129 4 24 23 25 29
25 165 0 118 -2 140 -15 140 -12 0 -15 -20 -15 -119 0 -66 -4 -131 -10 -145
-12 -33 -52 -43 -85 -22 -25 16 -25 19 -25 151 0 113 -2 135 -15 135 -13 0
-15 -23 -15 -144z"/>
<path d="M3190 14380 c0 -16 7 -20 35 -20 l35 0 0 -146 c0 -133 1 -145 18
-142 15 3 17 19 20 146 l3 142 34 0 c28 0 35 4 35 20 0 19 -7 20 -90 20 -83 0
-90 -1 -90 -20z"/>
<path d="M3432 14377 c-20 -21 -22 -34 -22 -144 0 -119 0 -122 26 -142 38 -30
98 -28 129 4 24 23 25 30 25 140 0 110 -1 117 -25 140 -33 34 -102 35 -133 2z
m104 -21 c16 -12 20 -29 22 -103 2 -48 -1 -100 -7 -115 -13 -35 -52 -46 -86
-24 -24 16 -25 21 -25 118 0 80 3 105 17 120 19 22 52 23 79 4z"/>
<path d="M3650 14235 c0 -158 1 -165 20 -165 19 0 20 7 20 112 l0 112 63 -109
c35 -60 69 -111 75 -113 9 -3 12 39 12 162 0 158 -1 166 -20 166 -18 0 -20 -8
-22 -107 l-3 -108 -60 107 c-33 59 -66 108 -72 108 -10 0 -13 -40 -13 -165z"/>
<path d="M3925 14375 c-24 -23 -25 -30 -25 -140 0 -110 1 -117 25 -140 35 -36
102 -35 136 1 21 23 24 36 27 120 4 108 0 136 -28 164 -30 30 -103 27 -135 -5z
m110 -21 c13 -13 15 -36 13 -122 -3 -103 -4 -107 -30 -121 -21 -12 -31 -13
-52 -3 -26 11 -26 13 -26 126 0 99 2 116 18 125 25 15 58 13 77 -5z"/>
<path d="M4150 14235 c0 -138 2 -165 15 -165 11 0 15 20 17 97 l3 97 34 -97
c19 -54 40 -96 45 -94 6 2 24 41 41 88 l30 84 5 -85 c4 -70 8 -85 23 -88 16
-3 17 10 17 163 0 129 -3 166 -12 163 -7 -3 -33 -59 -58 -126 -27 -74 -47
-117 -52 -109 -4 7 -26 63 -49 125 -23 62 -45 112 -50 112 -5 0 -9 -74 -9
-165z"/>
<path d="M4420 14390 c0 -6 18 -46 40 -90 36 -72 40 -87 40 -155 0 -60 3 -75
15 -75 12 0 15 15 15 75 0 68 4 83 40 155 44 88 47 100 25 100 -9 0 -29 -28
-47 -65 l-33 -65 -32 65 c-19 36 -40 65 -48 65 -8 0 -15 -5 -15 -10z"/>
<path d="M10351 14426 c-8 -9 -10 -158 -9 -487 l3 -474 23 -3 22 -3 0 484 c0
411 -2 486 -14 490 -8 3 -19 0 -25 -7z"/>
<path d="M8452 13917 c-9 -11 40 -103 224 -423 130 -225 240 -413 245 -419 6
-6 15 -4 24 6 14 13 -11 61 -224 429 -131 228 -243 416 -248 417 -6 2 -15 -2
-21 -10z"/>
<path d="M12248 13913 c-33 -39 -469 -807 -466 -822 2 -9 10 -16 18 -16 17 0
491 812 487 834 -3 22 -22 24 -39 4z"/>
<path d="M9829 12882 c-67 -34 -116 -102 -125 -172 l-6 -48 -97 -7 c-462 -30
-765 -80 -1041 -172 -229 -76 -454 -195 -617 -326 l-85 -68 -391 225 c-300
174 -393 223 -404 215 -7 -6 -13 -15 -13 -19 0 -5 173 -108 385 -230 l384
-223 -104 -111 c-308 -328 -548 -710 -719 -1143 -31 -78 -56 -147 -56 -152 0
-7 -62 -11 -188 -11 -189 0 -217 -5 -205 -36 4 -11 42 -14 188 -14 l184 0 -20
-67 c-84 -288 -121 -600 -100 -843 14 -153 40 -255 93 -357 22 -43 51 -109 64
-148 36 -103 98 -201 181 -283 l73 -72 -46 -28 c-78 -46 -107 -66 -112 -79 -9
-31 32 -21 116 27 l90 51 59 -29 c146 -74 317 -99 473 -68 169 33 363 154 451
282 l30 44 1792 0 1793 0 18 -31 c28 -47 148 -161 210 -198 165 -99 345 -132
530 -97 178 35 321 125 458 289 l23 28 279 -161 c154 -88 285 -159 293 -156
36 14 -3 43 -236 178 l-250 143 132 6 c160 7 201 14 292 47 211 75 335 245
335 457 0 83 -17 234 -36 330 -37 185 -149 468 -262 660 l-41 70 292 5 c284 5
292 6 292 25 0 20 -8 20 -310 23 l-311 2 -16 28 c-35 58 -206 283 -303 397
-243 286 -485 492 -907 769 -638 419 -1308 714 -1818 800 -94 16 -269 35 -322
36 -24 0 -28 4 -28 30 0 71 -57 150 -135 186 -70 33 -138 32 -206 -4z m599
-278 c163 -22 321 -61 534 -131 164 -54 216 -76 310 -132 454 -269 1075 -756
1434 -1122 271 -277 391 -418 518 -609 195 -292 345 -600 414 -849 23 -84 26
-114 26 -241 0 -132 -3 -153 -28 -230 -40 -120 -80 -196 -108 -204 -13 -3 -57
-9 -99 -13 l-76 -6 -6 239 c-7 322 -31 417 -152 599 -120 181 -322 318 -540
366 -95 21 -303 16 -400 -10 -236 -63 -447 -233 -556 -446 l-43 -85 -84 0 -84
0 6 28 c58 294 61 984 5 1366 -86 594 -354 1047 -729 1236 -144 73 -360 127
-589 150 -228 22 -704 10 -954 -26 -492 -69 -814 -298 -912 -649 -26 -92 -31
-346 -10 -525 73 -643 355 -1385 630 -1663 200 -202 467 -296 925 -328 299
-20 961 -2 1175 32 229 37 366 131 423 291 l17 48 82 0 c46 0 83 -3 83 -7 -1
-5 -8 -35 -16 -68 -12 -43 -18 -128 -21 -302 l-5 -243 -1539 0 -1539 0 0 225
c0 167 -4 246 -16 303 -40 196 -158 384 -317 506 -86 65 -233 137 -337 162
-107 27 -305 24 -415 -5 -243 -65 -446 -227 -560 -446 l-35 -66 0 120 c0 432
179 994 468 1468 l56 92 55 6 c103 12 222 36 278 57 87 32 194 152 334 374 65
103 198 355 217 412 10 29 24 39 106 77 351 164 809 246 1476 265 300 8 449 4
598 -16z m-265 -219 c259 -34 442 -104 561 -215 69 -65 152 -181 204 -285 66
-134 144 -384 166 -537 l7 -48 -1125 0 -1126 0 0 263 c0 299 9 359 66 477 49
99 161 212 255 258 79 38 199 68 351 86 157 19 499 20 641 1z m-1973 -130 c0
-3 -23 -51 -51 -108 -110 -218 -271 -459 -371 -554 -42 -39 -70 -56 -120 -71
-72 -23 -226 -48 -235 -39 -7 7 100 155 196 272 159 192 316 339 481 449 77
52 100 64 100 51z m3520 -102 c414 -217 830 -492 1139 -752 l115 -96 -138 -3
-137 -3 -107 99 c-307 283 -686 585 -982 782 -52 34 -99 67 -105 72 -18 18 69
-22 215 -99z m-256 -1000 c27 -179 35 -295 42 -603 14 -641 -38 -933 -186
-1050 -142 -113 -367 -144 -1040 -145 -351 0 -450 3 -568 18 -530 66 -770 234
-992 692 -80 164 -125 276 -190 475 -54 163 -121 427 -145 570 -8 52 -18 107
-21 123 l-6 27 1545 0 1545 0 16 -107z m1660 -8 c434 -478 696 -956 760 -1387
39 -258 -1 -437 -122 -550 -43 -41 -132 -97 -132 -83 0 2 13 38 29 79 48 120
65 222 58 361 -9 190 -59 350 -202 640 -186 378 -376 642 -709 983 l-71 73
144 -3 145 -3 100 -110z m-5259 -925 c275 -69 491 -272 587 -550 l32 -95 4
-252 4 -253 -91 0 c-90 0 -92 0 -80 21 40 76 61 168 66 292 7 152 -8 229 -67
352 -90 186 -251 322 -460 386 -97 30 -280 33 -380 6 -305 -81 -529 -350 -547
-656 -6 -86 -7 -92 -20 -68 -23 44 -55 200 -50 240 3 21 28 84 56 141 109 224
340 403 576 445 33 6 71 13 85 15 51 9 207 -4 285 -24z m4814 4 c78 -19 210
-78 278 -125 160 -110 280 -284 334 -484 18 -67 22 -117 26 -312 l5 -233 -97
0 c-77 0 -95 3 -87 13 21 26 62 160 73 242 65 461 -347 876 -810 818 -169 -22
-294 -80 -417 -196 -224 -211 -294 -527 -178 -811 13 -33 24 -61 24 -63 0 -2
-41 -3 -91 -3 l-91 0 5 238 c4 199 8 249 25 315 87 322 358 565 687 617 79 12
231 4 314 -16z m-4900 -393 c84 -26 137 -60 199 -125 237 -250 92 -660 -254
-719 -183 -31 -373 72 -457 250 -30 64 -32 75 -32 178 0 103 2 114 32 178 94
198 313 300 512 238z m4800 8 c169 -39 303 -183 333 -358 30 -177 -67 -368
-230 -450 -334 -168 -710 134 -617 494 58 223 292 366 514 314z"/>
<path d="M11686 11480 c-74 -23 -106 -85 -106 -202 0 -107 23 -158 84 -187 37
-18 61 -21 197 -21 141 0 159 2 199 23 64 32 80 70 80 185 0 108 -18 155 -72
187 -29 17 -53 20 -193 22 -88 1 -173 -2 -189 -7z m365 -53 c38 -26 49 -59 49
-150 0 -152 -30 -171 -262 -165 l-148 3 -32 33 c-33 32 -33 33 -33 131 0 109
9 130 70 157 47 22 321 15 356 -9z"/>
<path d="M8752 11028 c-20 -20 -15 -76 7 -88 13 -7 387 -10 1141 -10 754 0
1128 3 1141 10 22 12 27 68 7 88 -17 17 -2279 17 -2296 0z m2268 -43 c0 -13
-128 -15 -1117 -13 -882 2 -1117 6 -1121 16 -3 9 225 12 1117 12 991 0 1121
-2 1121 -15z"/>
<path d="M8836 10839 c-27 -79 -78 -270 -73 -275 11 -11 25 6 32 36 6 28 10
30 51 30 40 0 44 -2 52 -32 8 -31 32 -51 32 -27 0 22 -72 263 -81 273 -5 6
-10 4 -13 -5z m28 -123 c9 -30 16 -57 16 -60 0 -3 -16 -6 -36 -6 -29 0 -34 3
-30 18 2 9 10 36 17 60 7 23 13 42 15 42 1 0 10 -24 18 -54z"/>
<path d="M8970 10722 c0 -148 7 -162 78 -162 32 0 45 6 61 26 19 24 21 40 21
145 0 99 -3 119 -15 119 -12 0 -15 -20 -15 -118 0 -103 -3 -121 -18 -135 -25
-22 -48 -21 -72 3 -18 18 -20 33 -20 135 0 70 -4 115 -10 115 -6 0 -10 -49
-10 -128z"/>
<path d="M9160 10835 c0 -10 11 -15 35 -15 l35 0 0 -130 c0 -109 2 -130 15
-130 13 0 15 21 15 130 l0 130 30 0 c20 0 30 5 30 15 0 12 -16 15 -80 15 -64
0 -80 -3 -80 -15z"/>
<path d="M9382 10827 c-20 -21 -22 -34 -22 -125 0 -121 12 -142 80 -142 68 0
80 21 80 143 0 95 -2 105 -23 125 -32 30 -87 29 -115 -1z m96 -19 c8 -8 12
-47 12 -110 0 -95 -1 -99 -25 -110 -19 -8 -31 -8 -50 0 -24 11 -25 15 -25 110
0 106 7 122 50 122 14 0 31 -5 38 -12z"/>
<path d="M9580 10708 c0 -124 2 -148 15 -148 11 0 15 20 17 96 l3 96 54 -96
c30 -53 59 -96 63 -96 4 0 8 65 8 145 0 122 -2 145 -15 145 -12 0 -15 -18 -15
-102 l0 -103 -49 85 c-84 146 -80 147 -81 -22z"/>
<path d="M9822 10827 c-20 -21 -22 -34 -22 -125 0 -121 12 -142 80 -142 68 0
80 21 80 143 0 95 -2 105 -23 125 -32 30 -87 29 -115 -1z m96 -19 c8 -8 12
-47 12 -110 0 -95 -1 -99 -25 -110 -19 -8 -31 -8 -50 0 -24 11 -25 15 -25 110
0 106 7 122 50 122 14 0 31 -5 38 -12z"/>
<path d="M10020 10706 c0 -123 2 -146 15 -146 12 0 15 16 16 83 l0 82 30 -82
c17 -46 34 -83 39 -83 4 0 21 37 36 82 l29 83 3 -83 c2 -64 6 -82 17 -82 13 0
15 25 15 146 0 82 -4 143 -9 140 -5 -3 -26 -53 -47 -111 -22 -58 -42 -105 -45
-105 -4 0 -23 47 -44 105 -20 58 -41 108 -46 111 -5 3 -9 -58 -9 -140z"/>
<path d="M10302 10827 c-20 -21 -22 -34 -22 -125 0 -121 12 -142 80 -142 68 0
80 21 80 143 0 95 -2 105 -23 125 -32 30 -87 29 -115 -1z m96 -19 c8 -8 12
-47 12 -110 0 -95 -1 -99 -25 -110 -19 -8 -31 -8 -50 0 -24 11 -25 15 -25 110
0 106 7 122 50 122 14 0 31 -5 38 -12z"/>
<path d="M10494 10835 c-3 -8 -4 -63 -2 -124 4 -130 15 -151 83 -151 70 0 80
19 80 163 0 86 -4 121 -12 124 -9 3 -13 -27 -15 -118 -3 -121 -3 -123 -29
-138 -24 -13 -29 -13 -53 2 -26 17 -26 19 -26 137 0 76 -4 120 -10 120 -6 0
-13 -7 -16 -15z"/>
<path d="M10732 10827 c-44 -46 -18 -112 51 -133 36 -11 57 -35 57 -65 0 -54
-79 -65 -102 -14 -14 31 -28 32 -28 2 0 -35 30 -57 78 -57 53 0 82 26 82 73 0
39 -17 58 -81 90 -48 24 -63 63 -35 86 23 19 69 10 81 -16 5 -13 15 -23 22
-23 21 0 15 29 -12 55 -32 33 -83 34 -113 2z"/>
<path d="M10910 10575 c0 -8 7 -15 15 -15 8 0 15 7 15 15 0 8 -7 15 -15 15 -8
0 -15 -7 -15 -15z"/>
<path d="M13250 12306 c-223 -129 -411 -240 -418 -246 -12 -10 -11 -15 1 -27
12 -13 66 16 428 225 305 176 414 244 414 257 0 10 -4 20 -10 21 -5 2 -192
-102 -415 -230z"/>
<path d="M8920 8148 c-31 -34 -478 -823 -473 -835 3 -8 12 -13 21 -11 8 2 123
189 254 417 209 362 238 416 225 428 -12 12 -17 13 -27 1z"/>
<path d="M11786 8153 c-3 -4 -6 -13 -6 -20 0 -25 472 -833 487 -833 7 0 16 6
19 14 6 15 -463 833 -482 840 -7 3 -15 2 -18 -1z"/>
<path d="M10347 7764 c-10 -11 -8 -947 2 -963 5 -8 16 -11 25 -8 15 6 16 53
14 489 -3 427 -5 483 -18 486 -9 1 -19 0 -23 -4z"/>
<path d="M14808 14489 c-181 -26 -341 -194 -355 -373 l-6 -66 427 0 426 0 0
39 c0 50 -30 148 -63 204 -82 139 -260 220 -429 196z m173 -55 c72 -22 154
-77 195 -133 39 -53 74 -139 74 -181 l0 -30 -179 0 -179 0 -27 80 c-27 82 -39
100 -57 82 -6 -6 -3 -33 11 -79 12 -39 21 -73 21 -77 0 -3 -79 -6 -176 -6
-162 0 -175 1 -170 18 2 9 8 33 11 52 9 45 46 118 81 159 90 107 257 156 395
115z"/>
<path d="M14857 14424 c-4 -4 -7 -34 -7 -66 0 -45 4 -60 16 -65 24 -9 34 16
32 77 -2 40 -7 56 -18 58 -9 1 -19 0 -23 -4z"/>
<path d="M14684 14376 c-7 -18 54 -116 72 -116 22 0 16 32 -16 83 -30 48 -47
58 -56 33z"/>
<path d="M15028 14373 c-9 -10 -25 -37 -37 -61 -20 -39 -20 -43 -5 -49 19 -7
34 9 65 70 27 51 11 78 -23 40z"/>
<path d="M14560 14243 c0 -21 94 -77 116 -69 25 10 15 25 -38 56 -61 34 -78
37 -78 13z"/>
<path d="M15117 14236 c-55 -33 -64 -43 -49 -58 17 -17 122 38 122 64 0 24
-26 22 -73 -6z"/>
<path d="M16664 13551 c-53 -24 -84 -74 -84 -135 0 -44 -1 -46 -29 -46 -50 0
-52 -10 -49 -241 l3 -214 225 0 225 0 3 214 c3 231 1 241 -49 241 -28 0 -29 2
-29 46 0 30 -8 59 -22 82 -22 36 -85 72 -128 72 -14 0 -43 -9 -66 -19z m116
-44 c29 -14 60 -70 60 -109 l0 -28 -110 0 -110 0 0 28 c0 64 52 122 110 122
14 0 36 -6 50 -13z m130 -372 l0 -185 -180 0 -180 0 0 185 0 185 180 0 180 0
0 -185z"/>
<path d="M1683 11948 c-5 -7 -22 -60 -38 -118 -46 -171 -34 -162 -117 -85 -40
36 -79 64 -87 63 -23 -5 -155 -528 -138 -545 16 -17 28 -7 61 52 16 28 54 92
84 144 l54 93 67 -66 c37 -36 74 -66 83 -66 9 0 24 19 36 48 57 132 172 412
172 417 0 6 -109 57 -147 69 -12 4 -24 1 -30 -6z m81 -63 c20 -8 36 -20 36
-25 0 -11 -149 -372 -156 -379 -3 -3 -35 25 -72 62 -37 37 -73 67 -79 67 -6 0
-33 -38 -59 -85 -26 -47 -49 -84 -50 -82 -3 3 67 290 72 296 2 2 37 -26 77
-63 41 -36 79 -66 85 -66 6 0 13 8 16 18 3 9 19 67 36 127 17 61 33 118 36
128 6 21 12 21 58 2z"/>
<path d="M16350 10250 c-28 -28 -36 -69 -19 -99 8 -15 41 -39 74 -56 53 -26
60 -34 63 -62 6 -66 -88 -85 -111 -23 -14 37 -37 39 -37 5 0 -42 42 -75 92
-75 46 1 68 12 86 47 30 56 5 103 -74 138 -58 26 -70 41 -60 80 12 46 91 45
102 -1 6 -24 44 -36 44 -14 0 20 -29 68 -45 74 -35 13 -95 6 -115 -14z"/>
<path d="M16560 10105 l0 -165 95 0 c88 0 95 1 95 20 0 18 -7 20 -75 20 l-75
0 0 55 0 55 60 0 c47 0 60 3 60 15 0 12 -13 15 -60 15 l-60 0 0 55 0 55 75 0
c68 0 75 2 75 20 0 19 -7 20 -95 20 l-95 0 0 -165z"/>
<path d="M16815 10245 c-24 -23 -25 -30 -25 -140 0 -110 1 -117 25 -140 51
-51 150 -23 157 45 4 33 -29 41 -34 8 -5 -33 -49 -55 -82 -40 -26 11 -26 12
-26 127 0 112 1 116 24 126 39 18 76 4 83 -31 6 -31 30 -41 39 -16 7 18 -21
72 -41 80 -39 15 -96 6 -120 -19z"/>
<path d="M17030 10130 c0 -136 1 -142 25 -165 31 -32 91 -34 129 -4 26 20 26
21 26 165 0 121 -2 144 -15 144 -13 0 -15 -21 -15 -130 0 -117 -2 -132 -20
-150 -11 -11 -29 -20 -40 -20 -11 0 -29 9 -40 20 -18 18 -20 33 -20 150 0 109
-2 130 -15 130 -13 0 -15 -22 -15 -140z"/>
<path d="M17270 10104 c0 -152 1 -165 18 -162 14 3 18 16 20 71 2 47 7 67 16
67 7 0 34 -31 60 -70 25 -38 53 -70 62 -70 20 0 15 13 -31 85 -21 34 -30 55
-22 55 8 0 24 12 38 26 36 38 34 107 -4 140 -23 20 -39 24 -93 24 l-64 0 0
-166z m138 114 c7 -7 12 -27 12 -44 0 -40 -30 -64 -77 -64 l-33 0 0 60 0 60
43 0 c24 0 48 -5 55 -12z"/>
<path d="M17510 10105 c0 -158 1 -165 20 -165 19 0 20 7 20 165 0 158 -1 165
-20 165 -19 0 -20 -7 -20 -165z"/>
<path d="M17590 10250 c0 -16 7 -20 35 -20 l35 0 0 -146 c0 -133 1 -145 18
-142 15 3 17 19 20 146 l3 142 34 0 c28 0 35 4 35 20 0 19 -7 20 -90 20 -83 0
-90 -1 -90 -20z"/>
<path d="M17790 10260 c0 -6 18 -46 40 -90 36 -72 40 -87 40 -155 0 -60 3 -75
15 -75 12 0 15 15 15 75 0 68 4 83 40 155 44 88 47 100 25 100 -9 0 -29 -28
-47 -65 l-33 -65 -32 65 c-19 36 -40 65 -48 65 -8 0 -15 -5 -15 -10z"/>
<path d="M3805 10689 c-19 -52 -65 -222 -61 -226 9 -10 26 9 26 28 0 17 6 20
43 17 35 -2 43 -7 45 -25 2 -13 10 -23 18 -23 8 0 14 1 14 3 -1 10 -70 230
-74 234 -3 3 -8 0 -11 -8z m29 -116 c7 -31 6 -33 -18 -33 -29 0 -31 7 -14 62
13 43 18 38 32 -29z"/>
<path d="M3913 10685 c-10 -28 2 -192 16 -209 19 -22 84 -21 104 2 14 15 17
40 17 120 0 61 -4 102 -10 102 -6 0 -10 -40 -10 -99 0 -109 -8 -125 -57 -119
l-28 3 -3 108 c-2 99 -13 132 -29 92z"/>
<path d="M4080 10691 c0 -5 12 -11 28 -13 l27 -3 3 -107 c4 -143 22 -141 22 2
l0 110 30 0 c17 0 30 5 30 10 0 6 -30 10 -70 10 -38 0 -70 -4 -70 -9z"/>
<path d="M4264 10686 c-16 -12 -19 -27 -19 -104 0 -104 9 -122 65 -122 58 0
70 21 70 122 0 70 -3 88 -18 101 -23 21 -71 22 -98 3z m84 -18 c7 -7 12 -42
12 -89 0 -85 -10 -103 -57 -97 -28 3 -28 3 -31 86 -2 53 1 89 9 98 14 17 51
18 67 2z"/>
<path d="M4430 10580 c0 -139 18 -165 22 -32 l3 87 49 -87 c27 -49 53 -88 58
-88 5 0 7 53 6 118 -3 133 -20 155 -28 36 l-5 -77 -45 81 c-25 45 -48 82 -52
82 -5 0 -8 -54 -8 -120z"/>
<path d="M4634 10686 c-16 -12 -19 -27 -19 -104 0 -104 9 -122 65 -122 58 0
70 21 70 122 0 70 -3 88 -18 101 -23 21 -71 22 -98 3z m84 -18 c16 -16 16
-160 0 -176 -17 -17 -65 -15 -72 4 -11 29 -6 160 6 172 7 7 21 12 33 12 12 0
26 -5 33 -12z"/>
<path d="M4800 10581 c0 -74 4 -121 10 -121 6 0 10 31 10 72 0 39 3 69 6 65 3
-3 16 -33 28 -67 12 -34 27 -62 32 -63 5 -1 20 30 34 68 l25 70 3 -72 c5 -122
22 -83 22 49 0 72 -4 118 -9 113 -5 -6 -21 -43 -35 -84 -41 -113 -39 -113 -76
-12 -18 50 -37 94 -41 97 -5 3 -9 -49 -9 -115z"/>
<path d="M5037 10682 c-13 -14 -17 -39 -17 -104 0 -98 12 -118 73 -118 53 0
67 26 67 122 0 65 -3 81 -20 98 -26 26 -81 26 -103 2z m81 -10 c9 -6 12 -33
10 -98 l-3 -89 -30 -3 c-19 -3 -33 2 -42 14 -16 21 -17 137 -3 165 11 20 45
25 68 11z"/>
<path d="M5200 10597 c0 -119 10 -137 73 -137 56 0 68 27 65 141 -4 128 -22
121 -28 -11 l-5 -105 -28 -3 c-49 -6 -57 10 -57 119 0 59 -4 99 -10 99 -6 0
-10 -41 -10 -103z"/>
<path d="M5394 10674 c-26 -39 -9 -74 47 -101 51 -24 64 -44 48 -74 -15 -28
-70 -22 -84 9 -12 27 -25 29 -25 4 0 -29 33 -52 73 -52 28 0 40 6 53 26 26 39
9 74 -49 104 -42 22 -47 28 -45 55 3 26 8 30 36 33 27 3 34 -1 42 -24 8 -20
14 -24 22 -16 8 8 7 18 -6 36 -24 37 -88 37 -112 0z"/>
<path d="M3803 10290 c-33 -13 -43 -42 -43 -124 0 -89 17 -116 74 -116 35 0
66 27 66 57 0 22 -16 15 -28 -12 -8 -16 -20 -25 -34 -25 -44 0 -49 11 -46 106
l3 89 32 3 c26 3 34 -2 47 -25 13 -25 15 -26 22 -10 13 36 -50 74 -93 57z"/>
<path d="M4390 10287 c-28 -14 -38 -42 -39 -114 -1 -55 12 -103 32 -115 38
-25 107 5 107 45 0 24 -14 21 -25 -5 -12 -27 -56 -36 -74 -14 -8 9 -11 43 -9
98 l3 83 35 0 c27 0 37 -5 45 -22 12 -28 25 -30 25 -5 0 40 -60 69 -100 49z"/>
<path d="M4573 10290 c-33 -13 -43 -42 -43 -124 0 -89 17 -116 74 -116 52 0
66 27 66 126 0 65 -4 84 -17 96 -25 22 -54 28 -80 18z m67 -39 c5 -11 10 -47
10 -81 0 -69 -12 -100 -40 -100 -46 0 -50 8 -50 99 0 48 3 91 7 94 14 15 63 7
73 -12z"/>
<path d="M5280 10293 c-42 -15 -50 -34 -50 -117 0 -98 14 -126 64 -126 59 0
71 18 74 112 3 70 1 87 -15 105 -20 24 -50 34 -73 26z m58 -117 c3 -95 -2
-106 -45 -106 -32 0 -43 29 -43 107 0 78 10 95 55 91 l30 -3 3 -89z"/>
<path d="M3965 10204 c-14 -49 -30 -102 -36 -118 -11 -36 -11 -36 2 -36 5 0
15 14 20 30 9 26 16 30 45 30 30 0 37 -4 45 -30 10 -26 29 -42 29 -24 0 16
-63 220 -70 228 -5 5 -20 -31 -35 -80z m49 -27 l14 -47 -29 0 c-16 0 -29 3
-29 6 0 14 23 94 26 91 2 -2 10 -25 18 -50z"/>
<path d="M4100 10170 c0 -73 4 -120 10 -120 6 0 10 23 10 50 0 66 19 66 62 0
18 -27 39 -50 47 -50 11 0 11 4 -1 23 -8 12 -22 34 -32 48 -16 26 -16 27 9 43
19 13 25 25 25 55 0 51 -23 71 -83 71 l-47 0 0 -120z m99 86 c7 -8 11 -27 9
-43 -3 -25 -7 -28 -45 -31 l-43 -3 0 45 c0 46 0 46 34 46 18 0 39 -6 45 -14z"/>
<path d="M4720 10171 c0 -139 18 -167 22 -35 l3 87 48 -87 c27 -47 51 -86 53
-86 2 0 4 54 4 120 0 136 -18 166 -22 39 l-3 -82 -44 77 c-24 42 -47 79 -52
82 -5 3 -9 -49 -9 -115z"/>
<path d="M4890 10280 c0 -5 11 -10 25 -10 l25 0 0 -111 c0 -84 3 -110 13 -107
8 3 13 37 15 111 3 106 3 107 27 107 14 0 25 5 25 10 0 6 -28 10 -65 10 -37 0
-65 -4 -65 -10z"/>
<path d="M5050 10169 c0 -92 3 -120 13 -117 6 3 13 25 15 51 4 61 21 60 60 -3
17 -27 36 -50 42 -50 15 0 13 6 -15 50 -14 22 -25 42 -25 46 0 3 11 15 25 26
29 23 33 62 9 96 -12 18 -25 22 -70 22 l-54 0 0 -121z m110 75 c15 -39 -3 -64
-45 -64 -35 0 -35 0 -35 45 0 45 0 45 35 45 29 0 37 -5 45 -26z"/>
<path d="M5410 10170 l0 -120 54 0 c69 0 84 18 19 22 l-48 3 -3 108 c-4 148
-22 138 -22 -13z"/>
<path d="M3992 9650 c-57 -35 -62 -60 -62 -342 0 -233 2 -255 20 -285 38 -64
25 -62 607 -65 500 -3 530 -2 559 16 45 27 58 53 64 126 l5 65 35 5 35 5 3
139 c3 150 1 156 -50 156 -27 0 -28 1 -28 60 0 55 -3 64 -34 98 l-34 37 -544
3 c-531 2 -544 2 -576 -18z m1119 -49 c26 -27 29 -35 29 -99 0 -75 5 -82 56
-82 24 0 24 -1 24 -104 l0 -105 -37 -3 -38 -3 -3 -77 c-2 -66 -6 -79 -28 -101
-24 -24 -29 -25 -227 -31 -111 -4 -350 -5 -530 -4 l-329 3 -29 33 -29 32 0
246 c0 257 5 288 47 313 12 7 204 11 541 11 l524 0 29 -29z"/>
<path d="M4120 8725 c-88 -28 -144 -105 -145 -201 0 -58 6 -73 100 -263 54
-110 105 -201 112 -201 20 0 204 386 210 441 17 154 -129 271 -277 224z m127
-40 c48 -20 71 -41 94 -87 35 -69 27 -102 -68 -294 l-88 -175 -87 177 c-93
187 -101 215 -73 281 21 50 42 72 90 94 49 23 84 24 132 4z"/>
<path d="M4970 8709 c-59 -24 -95 -78 -106 -157 -6 -45 -10 -52 -29 -52 -13 0
-26 -7 -29 -16 -9 -24 -7 -407 2 -422 7 -9 59 -12 228 -10 l219 3 0 220 0 220
-27 3 c-24 3 -28 8 -28 35 0 105 -77 188 -173 186 -18 0 -43 -5 -57 -10z m128
-55 c32 -22 52 -66 52 -114 l0 -40 -120 0 -120 0 0 34 c0 53 20 96 54 117 38
23 103 25 134 3z m120 -381 l2 -183 -185 0 -185 0 0 185 0 185 183 -2 182 -3
3 -182z"/>
<path d="M4076 7774 c-4 -10 -4 -160 0 -333 l7 -316 28 -27 c40 -40 106 -40
151 1 l33 29 0 329 0 328 -106 3 c-93 2 -107 0 -113 -14z m184 -48 c0 -19 -6
-25 -27 -28 -17 -2 -29 -10 -31 -20 -3 -14 3 -18 28 -18 25 0 31 -4 28 -17 -2
-11 -14 -19 -31 -21 -35 -4 -35 -30 1 -34 16 -2 27 -9 27 -18 0 -9 -11 -16
-27 -18 -16 -2 -28 -9 -28 -17 0 -8 12 -15 28 -17 l27 -3 3 -181 c2 -161 0
-184 -15 -202 -29 -34 -66 -37 -99 -9 l-29 25 -3 199 c-2 109 -1 244 3 301 l7
102 69 0 c66 0 69 -1 69 -24z"/>
<path d="M4838 7747 c-114 -48 -183 -129 -214 -247 -65 -253 173 -490 427
-426 117 30 207 110 250 226 17 44 20 71 17 135 -6 101 -38 174 -108 239 -71
66 -127 89 -230 93 -72 3 -94 0 -142 -20z m260 -46 c65 -33 118 -87 149 -149
38 -78 40 -193 4 -266 -55 -111 -157 -176 -277 -176 -101 0 -158 22 -225 89
-67 67 -93 133 -91 231 1 125 92 246 212 285 64 21 173 14 228 -14z"/>
<path d="M4951 7687 c-7 -7 -11 -55 -11 -129 l0 -117 -82 -3 c-75 -3 -83 -5
-83 -23 0 -19 7 -20 105 -20 l105 0 3 146 c2 119 0 148 -12 152 -7 3 -19 0
-25 -6z"/>
<path d="M15157 7443 c-4 -3 -7 -150 -7 -325 0 -346 2 -362 55 -386 70 -32
146 -2 165 66 15 55 13 625 -2 640 -13 13 -199 17 -211 5z m173 -67 c0 -19 -6
-25 -27 -28 -17 -2 -28 -9 -28 -18 0 -9 11 -16 28 -18 15 -2 27 -9 27 -17 0
-8 -12 -15 -27 -17 -17 -2 -28 -9 -28 -18 0 -9 11 -16 28 -18 15 -2 27 -9 27
-17 0 -8 -12 -15 -27 -17 -17 -2 -28 -9 -28 -18 0 -9 11 -16 28 -18 l27 -3 0
-182 c0 -172 -1 -182 -22 -204 -28 -30 -63 -29 -93 2 l-25 24 0 296 0 295 70
0 c67 0 70 -1 70 -24z"/>
<path d="M12825 5675 c-25 -24 -25 -27 -25 -190 0 -163 0 -166 25 -190 l24
-25 316 0 316 0 24 25 c17 16 25 35 25 59 0 28 4 35 23 38 21 3 22 7 22 93 0
86 -1 90 -22 93 -19 3 -23 10 -23 38 0 24 -8 43 -25 59 l-24 25 -316 0 -316 0
-24 -25z m649 -31 c9 -9 16 -32 16 -56 0 -31 4 -41 20 -45 17 -5 20 -14 20
-59 0 -47 -2 -54 -20 -54 -17 0 -20 -7 -20 -44 0 -78 8 -76 -325 -76 -254 0
-296 2 -309 16 -13 13 -16 42 -16 159 0 117 3 146 16 159 13 14 55 16 309 16
254 0 296 -2 309 -16z"/>
<path d="M17415 4896 c-53 -23 -93 -65 -116 -121 -16 -39 -33 -61 -56 -75 -96
-56 -96 -192 -1 -250 31 -19 51 -20 288 -20 237 0 257 1 288 20 87 53 96 176
19 237 -13 10 -27 35 -31 54 -9 50 -38 73 -92 74 -34 0 -47 5 -60 24 -40 56
-170 87 -239 57z m120 -37 c43 -11 115 -73 115 -99 0 -13 37 -13 45 0 3 6 17
10 30 10 27 0 39 -25 29 -64 -5 -22 -1 -27 29 -40 35 -14 67 -58 67 -91 0 -29
-30 -74 -60 -90 -23 -12 -73 -15 -262 -15 -212 0 -236 2 -264 19 -74 45 -63
145 21 181 37 16 45 24 45 46 0 63 56 128 124 144 17 5 32 8 34 9 2 1 23 -4
47 -10z"/>
<path d="M10843 4003 c-13 -2 -32 -16 -43 -30 -17 -22 -20 -40 -20 -135 0
-108 0 -110 29 -139 53 -52 140 -28 157 44 5 23 3 27 -15 27 -14 0 -21 -6 -21
-18 0 -27 -20 -42 -55 -42 -17 0 -36 5 -43 12 -16 16 -16 220 0 236 30 30 98
3 98 -39 0 -21 8 -23 29 -10 23 15 -6 71 -45 87 -19 8 -37 13 -41 13 -4 -1
-18 -4 -30 -6z"/>
<path d="M11664 4003 c-48 -9 -59 -37 -62 -159 l-4 -114 30 -30 c42 -41 92
-41 133 -1 34 35 39 71 9 71 -13 0 -20 -7 -20 -18 0 -27 -20 -42 -55 -42 -49
0 -55 13 -55 130 0 117 6 130 55 130 37 0 55 -16 55 -48 0 -18 4 -23 16 -18 9
3 18 6 20 6 13 0 1 43 -18 64 -23 25 -66 37 -104 29z"/>
<path d="M10000 3840 l0 -160 95 0 c78 0 95 3 95 15 0 12 -15 15 -75 15 l-75
0 0 55 0 55 60 0 c53 0 60 2 60 20 0 18 -7 20 -60 20 l-60 0 0 55 0 55 75 0
c60 0 75 3 75 15 0 12 -17 15 -95 15 l-95 0 0 -160z"/>
<path d="M10230 3840 c0 -153 1 -160 20 -160 18 0 20 7 20 70 l0 70 60 0 c53
0 60 2 60 20 0 18 -7 20 -60 20 l-60 0 0 55 0 55 75 0 c60 0 75 3 75 15 0 12
-17 15 -95 15 l-95 0 0 -160z"/>
<path d="M10460 3840 c0 -153 1 -160 20 -160 18 0 20 7 20 70 l0 70 61 0 c52
0 60 2 57 18 -2 13 -15 18 -61 20 l-57 3 0 54 0 55 75 0 c60 0 75 3 75 15 0
12 -17 15 -95 15 l-95 0 0 -160z"/>
<path d="M10680 3840 c0 -153 1 -160 20 -160 19 0 20 7 20 160 0 153 -1 160
-20 160 -19 0 -20 -7 -20 -160z"/>
<path d="M11020 3840 c0 -153 1 -160 20 -160 19 0 20 7 20 160 0 153 -1 160
-20 160 -19 0 -20 -7 -20 -160z"/>
<path d="M11120 3840 l0 -160 95 0 c78 0 95 3 95 15 0 12 -15 15 -75 15 l-75
0 0 55 0 55 60 0 c53 0 60 2 60 20 0 18 -7 20 -60 20 l-60 0 0 55 0 55 75 0
c60 0 75 3 75 15 0 12 -17 15 -95 15 l-95 0 0 -160z"/>
<path d="M11350 3840 c0 -152 1 -160 20 -160 18 0 20 8 22 108 l3 107 60 -107
c33 -59 66 -108 73 -108 9 0 12 39 12 160 0 152 -1 160 -20 160 -18 0 -20 -8
-22 -105 l-3 -105 -59 105 c-33 58 -66 105 -73 105 -10 0 -13 -35 -13 -160z"/>
<path d="M11850 3920 c37 -73 40 -86 40 -160 0 -73 2 -80 20 -80 18 0 20 7 20
75 0 68 4 83 40 155 22 44 40 82 40 85 0 3 -8 5 -18 5 -12 0 -28 -21 -48 -62
l-31 -63 -32 63 c-23 45 -37 62 -51 62 -19 0 -17 -7 20 -80z"/>
<path d="M7940 3872 l0 -79 -40 -12 c-21 -6 -42 -16 -46 -22 -4 -7 -30 12 -64
46 -32 32 -63 54 -69 51 -23 -14 -9 -45 40 -91 34 -32 47 -50 41 -58 -5 -7
-14 -28 -21 -47 l-11 -35 -68 3 c-52 3 -71 0 -81 -12 -22 -26 -2 -36 75 -36
62 0 75 -3 80 -17 3 -10 12 -31 20 -47 15 -29 14 -30 -37 -82 -34 -35 -50 -58
-46 -68 10 -26 27 -19 81 35 l50 51 34 -16 c18 -9 39 -16 47 -16 12 0 15 -16
15 -80 0 -73 2 -80 20 -80 18 0 20 7 20 80 0 64 3 80 15 80 8 0 29 7 47 16
l34 16 50 -51 c54 -54 71 -61 81 -35 4 11 -11 32 -44 66 l-50 50 20 49 21 49
73 0 c58 0 75 3 80 16 10 25 -17 35 -90 32 -65 -3 -68 -2 -74 22 -3 14 -12 35
-19 47 -13 21 -11 25 36 69 48 45 62 76 39 90 -6 3 -37 -19 -69 -51 -34 -34
-60 -53 -64 -46 -4 6 -25 16 -46 22 l-40 12 0 79 c0 71 -2 78 -20 78 -18 0
-20 -7 -20 -78z m73 -136 c55 -23 87 -69 87 -128 0 -94 -66 -156 -155 -146
-84 10 -131 71 -123 157 10 99 101 155 191 117z"/>
<path d="M14484 2436 c-108 -27 -213 -114 -255 -210 l-23 -52 -42 29 c-71 50
-184 47 -184 -5 0 -13 12 -48 26 -78 62 -133 189 -200 312 -165 168 49 273
142 358 319 29 60 51 113 48 118 -12 19 -86 48 -136 53 -29 2 -76 -1 -104 -9z
m155 -47 c17 -6 31 -15 31 -21 0 -5 -21 -51 -47 -101 -71 -139 -156 -214 -296
-263 l-39 -14 17 28 c36 56 80 109 144 174 47 49 62 71 54 79 -8 8 -19 6 -42
-5 -42 -22 -153 -128 -197 -188 l-37 -50 -54 61 c-30 34 -61 61 -68 61 -28 0
-26 -21 6 -63 18 -23 37 -48 42 -54 18 -25 -12 -13 -47 17 -38 34 -80 114 -72
137 13 34 118 -13 149 -67 25 -42 47 -35 61 21 45 176 243 301 395 248z"/>
</g>
</svg>
